<svg width="32" height="32" viewBox="0 0 32 32" fill="none" xmlns="http://www.w3.org/2000/svg">
<path d="M23.3438 3C23.8668 3 24.3838 3.19 24.8138 3.53L24.8738 3.563L24.9058 3.593L28.0308 6.813L28.0008 6.843C28.9638 7.735 29.2638 9.067 28.8448 10.219C28.8428 10.224 28.8468 10.243 28.8448 10.249C27.9978 12.677 25.8278 17.359 21.5948 21.593C17.3448 25.843 12.5978 27.923 10.2508 28.843H10.2208C9.63211 29.0371 9.00329 29.0757 8.39531 28.9552C7.78732 28.8347 7.22082 28.559 6.75076 28.155L6.72076 28.125L6.68876 28.093L3.59276 25C2.76276 24.17 2.76276 22.736 3.59276 21.906L7.65476 17.844L7.68676 17.781C8.51676 16.951 9.98176 16.951 10.8118 17.781L10.8418 17.813L12.8118 19.783C14.3128 19.0618 15.6935 18.1129 16.9048 16.97C18.5408 15.407 19.3788 13.61 19.6848 12.906L17.6868 10.906C16.8448 10.064 16.8318 8.67 17.7168 7.844L17.6868 7.812L17.7798 7.719L21.7798 3.593L21.8128 3.563L21.8748 3.53C22.2909 3.19244 22.809 3.00564 23.3448 3H23.3438ZM23.3438 5C23.2698 5 23.1968 5.036 23.1238 5.094L19.1238 9.187L19.0618 9.25L19.0318 9.28C19.0388 9.275 18.9718 9.377 19.0938 9.5L21.5938 12L22.0638 12.438L21.8438 13.062C21.8438 13.062 20.6938 16.135 18.2808 18.438L18.0638 18.625C15.7398 20.747 12.9998 21.905 12.9998 21.905L12.3748 22.187L11.9048 21.719L9.40476 19.219C9.23476 19.049 9.26476 19.049 9.09476 19.219L4.99976 23.312C4.82976 23.482 4.82976 23.422 4.99976 23.592L8.06276 26.655C8.52276 27.051 9.00976 27.131 9.59276 26.937C11.8608 26.047 16.2628 24.11 20.1878 20.187C24.1428 16.23 26.2098 11.74 26.9678 9.563C27.1208 9.156 27.0108 8.553 26.6558 8.25L26.6258 8.22L26.5938 8.187L23.5618 5.094C23.5022 5.03886 23.4257 5.00569 23.3448 5H23.3438Z" fill="#2A3D42" fill-opacity="0.7"/>
</svg>
