<svg width="30" height="30" viewBox="0 0 30 30" fill="none" xmlns="http://www.w3.org/2000/svg">
<path d="M25.6657 7.64031C25.3763 6.89304 24.9341 6.21442 24.3674 5.64789C23.8006 5.08136 23.1218 4.6394 22.3745 4.35031C21.4999 4.02201 20.5759 3.84449 19.642 3.82531C18.4382 3.77281 18.057 3.75781 15.0045 3.75781C11.952 3.75781 11.5607 3.75781 10.367 3.82531C9.43369 3.84351 8.5104 4.02106 7.63695 4.35031C6.88937 4.63906 6.21041 5.0809 5.64362 5.64747C5.07683 6.21405 4.63474 6.89284 4.3457 7.64031C4.01733 8.51483 3.84022 9.43886 3.82195 10.3728C3.7682 11.5753 3.75195 11.9566 3.75195 15.0103C3.75195 18.0628 3.75195 18.4516 3.82195 19.6478C3.8407 20.5828 4.01695 21.5053 4.3457 22.3816C4.63555 23.1288 5.07807 23.8073 5.645 24.3738C6.21192 24.9403 6.89078 25.3823 7.6382 25.6716C8.50999 26.0131 9.43367 26.2033 10.3695 26.2341C11.5732 26.2866 11.9545 26.3028 15.007 26.3028C18.0595 26.3028 18.4507 26.3028 19.6445 26.2341C20.5783 26.2151 21.5022 26.038 22.377 25.7103C23.1241 25.4205 23.8027 24.9782 24.3694 24.4115C24.9361 23.8448 25.3784 23.1663 25.6682 22.4191C25.997 21.5441 26.1732 20.6216 26.192 19.6866C26.2457 18.4841 26.262 18.1028 26.262 15.0491C26.262 11.9953 26.262 11.6078 26.192 10.4116C26.1774 9.4644 25.9994 8.52687 25.6657 7.64031ZM24.1432 19.5553C24.1351 20.2757 24.0037 20.9894 23.7545 21.6653C23.5667 22.1514 23.2794 22.5928 22.9108 22.9612C22.5422 23.3295 22.1006 23.6166 21.6145 23.8041C20.946 24.0521 20.2399 24.1836 19.527 24.1928C18.3395 24.2478 18.0045 24.2616 14.9595 24.2616C11.912 24.2616 11.6007 24.2616 10.3907 24.1928C9.67811 24.1841 8.97236 24.0526 8.30445 23.8041C7.81656 23.6178 7.37321 23.3312 7.00307 22.9628C6.63293 22.5943 6.34425 22.1523 6.1557 21.6653C5.91001 20.9966 5.77859 20.2914 5.76695 19.5791C5.7132 18.3916 5.7007 18.0566 5.7007 15.0116C5.7007 11.9653 5.7007 11.6541 5.76695 10.4428C5.77503 9.72284 5.90652 9.00959 6.1557 8.33406C6.53695 7.34781 7.3182 6.57156 8.30445 6.19406C8.97269 5.94674 9.67823 5.81527 10.3907 5.80531C11.5795 5.75156 11.9132 5.73656 14.9595 5.73656C18.0057 5.73656 18.3182 5.73656 19.527 5.80531C20.24 5.81389 20.9462 5.9454 21.6145 6.19406C22.1006 6.3819 22.5421 6.66932 22.9107 7.03785C23.2792 7.40639 23.5666 7.8479 23.7545 8.33406C24.0001 9.00275 24.1316 9.70801 24.1432 10.4203C24.197 11.6091 24.2107 11.9428 24.2107 14.9891C24.2107 18.0341 24.2107 18.3616 24.157 19.5566H24.1432V19.5553Z" fill="#F2F3F3" fill-opacity="0.7"/>
<path d="M20.5661 9.28281C20.3978 9.14137 20.1948 9.04867 19.9785 9.0146C19.7623 8.98053 19.541 9.00635 19.3381 9.08932L8.74779 13.4101C8.52137 13.5043 8.32864 13.6658 8.19516 13.8732C8.06169 14.0807 7.99378 14.3242 8.00045 14.5716C8.00711 14.8189 8.08804 15.0584 8.23249 15.2582C8.37695 15.458 8.57809 15.6087 8.80925 15.6902L10.9514 16.4433L12.1451 20.4338C12.1615 20.4871 12.1852 20.5377 12.2154 20.5843C12.2202 20.5915 12.2267 20.5963 12.2314 20.6041C12.2662 20.653 12.3083 20.6963 12.3561 20.7325C12.3694 20.743 12.3832 20.753 12.3975 20.7623C12.4534 20.7999 12.5154 20.8273 12.5807 20.8435L12.5883 20.8441L12.5919 20.8459C12.6314 20.8539 12.6716 20.8579 12.7118 20.8579L12.7225 20.8561C12.783 20.8551 12.843 20.8446 12.9004 20.825C12.9139 20.8202 12.9252 20.8131 12.9382 20.8071C12.9811 20.7893 13.0217 20.7665 13.0593 20.739C13.0892 20.7133 13.1192 20.6876 13.1491 20.662L14.7459 18.8805L17.1274 20.745C17.337 20.91 17.595 20.9997 17.8607 21C18.1392 20.9997 18.4091 20.9026 18.6252 20.725C18.8412 20.5475 18.9903 20.3002 19.0474 20.0248L20.9756 10.4593C21.0192 10.2441 21.0042 10.021 20.932 9.81376C20.8599 9.60654 20.7334 9.42302 20.5661 9.28281ZM12.9459 16.6332C12.864 16.7158 12.8081 16.8209 12.7851 16.9354L12.6019 17.8336L12.1386 16.2851L14.5408 15.0208L12.9459 16.6332ZM17.8519 19.8008L15.0372 17.5971C14.9194 17.5053 14.7717 17.4616 14.6236 17.4749C14.4754 17.4882 14.3376 17.5574 14.2377 17.6688L13.7259 18.2391L13.9067 17.3511L18.0924 13.1211C18.1917 13.0201 18.252 12.8866 18.2626 12.7446C18.2731 12.6026 18.233 12.4615 18.1497 12.3467C18.0663 12.232 17.9452 12.151 17.808 12.1186C17.6708 12.0861 17.5267 12.1043 17.4016 12.1697L11.3946 15.3301L9.19336 14.5161L19.8179 10.2216L17.8519 19.8008Z" fill="#F2F3F3" fill-opacity="0.7"/>
</svg>
