<svg width="87" height="87" viewBox="0 0 87 87" fill="none" xmlns="http://www.w3.org/2000/svg">
<circle cx="43.5" cy="43.5" r="43.5" fill="#F2F3F3"/>
<g clip-path="url(#clip0)">
<path d="M76.7241 39.5156C76.4968 38.7614 76.0917 38.0727 75.5429 37.5075C75.124 37.0556 74.5864 36.7308 73.9915 36.5704C74.2829 37.0311 74.5467 37.5626 74.7436 38.1296C74.9641 38.7084 75.1058 39.3266 75.1491 39.9684C75.2155 40.523 75.2155 41.0834 75.1491 41.6379C75.0263 41.2269 74.8375 40.8386 74.59 40.4882C74.1024 39.8292 73.4508 39.3093 72.7 38.9801C71.8684 38.6056 70.9276 38.5521 70.0589 38.8298C69.1901 39.1075 68.4549 39.6968 67.9947 40.4842C67.7978 40.8071 67.6403 41.1576 67.5222 41.5316C62.8681 33.7826 54.493 28.6521 44.917 28.6521C44.4288 28.6521 43.9444 28.6639 43.4641 28.6914C40.4932 28.697 37.5372 29.1117 34.6795 29.9239C34.4354 28.215 32.191 24.75 21.8748 24.75L25.0248 34.6331C23.044 36.2343 21.3789 38.1905 20.1147 40.4016L13.9998 40.5C13.9998 40.5 13.3304 56.25 17.9373 56.25H20.0635C21.511 58.7036 23.4477 60.8333 25.7532 62.5067L25.8123 72H30.0648C35.2229 72 37.6248 72 37.6248 69.0469V67.5112C41.5964 68.2472 45.6704 68.2365 49.6381 67.4798L49.4373 69.0469C49.4373 72 51.8785 72 57.076 72H61.2498V62.5894C64.9419 60.0296 67.599 56.2359 68.7428 51.8912C68.9673 51.7849 69.1917 51.7967 69.4201 51.7967C69.6484 51.7967 69.8729 51.7849 70.0973 51.7573C71.0856 51.5762 71.9873 51.1903 72.7709 50.643C73.8299 49.8938 74.6404 48.8447 75.0979 47.6308C75.2082 47.2646 75.2909 46.8787 75.346 46.4811L75.3499 46.4417C76.2201 45.4101 76.8147 44.1186 76.9998 42.6971C77.1607 41.611 77.0636 40.5022 76.7163 39.4605L76.7241 39.5156ZM27.8204 39.5156C28.6036 39.5156 29.3547 39.8268 29.9086 40.3806C30.4624 40.9344 30.7735 41.6855 30.7735 42.4688C30.7735 43.252 30.4624 44.0031 29.9086 44.5569C29.3547 45.1107 28.6036 45.4219 27.8204 45.4219C27.0372 45.4219 26.286 45.1107 25.7322 44.5569C25.1784 44.0031 24.8673 43.252 24.8673 42.4688C24.8673 41.6855 25.1784 40.9344 25.7322 40.3806C26.286 39.8268 27.0372 39.5156 27.8204 39.5156ZM37.1523 36.5625C36.7076 36.7051 36.2268 36.6857 35.7951 36.5077C35.3633 36.3297 35.0086 36.0045 34.7937 35.5899C34.7267 35.3833 34.7043 35.1649 34.728 34.949C34.7517 34.7331 34.8208 34.5247 34.931 34.3375C35.0411 34.1503 35.1897 33.9887 35.367 33.8631C35.5442 33.7376 35.7461 33.6511 35.9592 33.6094C38.549 32.9884 41.2068 32.6973 43.8696 32.7431L44.2673 32.7392C46.9133 32.7392 49.4806 33.0542 51.9415 33.6527C52.4376 33.7472 52.9731 34.3693 52.9731 35.1174C52.9729 35.2766 52.9477 35.4347 52.8983 35.586C52.7605 35.8413 52.566 36.0617 52.3299 36.2302C52.0938 36.3988 51.8222 36.5111 51.5359 36.5586H50.9335C48.7338 36.0289 46.4787 35.7645 44.2161 35.7711H43.8657C41.4835 35.7711 39.1683 36.0585 36.9514 36.6019L37.1523 36.5625ZM71.4085 48.0994C70.8772 48.4858 70.2688 48.7531 69.6248 48.8829L69.1248 48.8869V48.375V47.1544C69.7744 47.6466 70.5974 47.9419 71.4873 47.9419H71.5699L71.4085 48.0994ZM71.7235 45.4219C71.3575 45.4732 70.9847 45.4061 70.6595 45.2304C70.3344 45.0547 70.0739 44.7796 69.9162 44.4454C69.7358 44.1015 69.6418 43.7189 69.6425 43.3306C69.6432 42.9423 69.7385 42.56 69.9201 42.2167C70.1073 41.9576 70.383 41.7761 70.695 41.7064C71.0069 41.6368 71.3336 41.6838 71.6133 41.8388C71.97 41.9757 72.2769 42.2176 72.4935 42.5325C72.71 42.8474 72.8259 43.2206 72.826 43.6028V43.6067C72.9038 44.1526 72.9025 44.707 72.8221 45.2526C72.4564 45.323 72.0839 45.3521 71.7117 45.3392L71.7235 45.4219Z" fill="#19B6DA"/>
<path d="M45.5 20.8124H41.5625V20.143H42.5469V15.8512H41.5625L43.7281 13.6855H44.5156V20.143H45.5V20.8124Z" fill="#19B6DA"/>
<path d="M43.5312 11.9531C44.3071 11.9534 45.0754 12.1065 45.7921 12.4036C46.5088 12.7008 47.16 13.1362 47.7084 13.685C48.2569 14.2338 48.6918 14.8853 48.9885 15.6022C49.2852 16.3191 49.4378 17.0874 49.4375 17.8633C49.4372 18.6392 49.2842 19.4074 48.987 20.1241C48.6899 20.8409 48.2544 21.492 47.7056 22.0405C47.1568 22.5889 46.5054 23.0239 45.7884 23.3206C45.0715 23.6173 44.3032 23.7698 43.5273 23.7696C41.9604 23.769 40.4578 23.1461 39.3501 22.0377C38.2425 20.9293 37.6205 19.4263 37.6211 17.8594C37.6216 16.2924 38.2446 14.7898 39.3529 13.6822C40.4613 12.5746 41.9643 11.9526 43.5312 11.9531ZM43.5312 9C41.1816 9 38.9282 9.9334 37.2667 11.5949C35.6053 13.2563 34.6719 15.5097 34.6719 17.8594C34.6719 20.209 35.6053 22.4624 37.2667 24.1239C38.9282 25.7854 41.1816 26.7188 43.5312 26.7188C45.8809 26.7188 48.1343 25.7854 49.7958 24.1239C51.4572 22.4624 52.3906 20.209 52.3906 17.8594C52.3906 15.5097 51.4572 13.2563 49.7958 11.5949C48.1343 9.9334 45.8809 9 43.5312 9V9Z" fill="#19B6DA"/>
</g>
<defs>
<clipPath id="clip0">
<rect width="63" height="63" fill="white" transform="translate(14 9)"/>
</clipPath>
</defs>
</svg>
