<svg width="59" height="47" viewBox="0 0 59 47" fill="none" xmlns="http://www.w3.org/2000/svg">
<path d="M4.56056 5.89132C4.78802 5.89132 5.01201 5.79896 5.1725 5.63731C5.33414 5.47682 5.42651 5.25398 5.42651 5.02537C5.42651 4.79792 5.33414 4.57392 5.1725 4.41344C5.01201 4.25179 4.78802 4.15942 4.56056 4.15942C4.3331 4.15942 4.10911 4.25179 3.94862 4.41344C3.78698 4.57392 3.69461 4.79792 3.69461 5.02537C3.69461 5.25283 3.78698 5.47682 3.94862 5.63731C4.10911 5.79896 4.3331 5.89132 4.56056 5.89132Z" fill="#19B6DA"/>
<path d="M7.33177 5.89108C7.55923 5.89108 7.78322 5.79871 7.94371 5.63707C8.10535 5.47658 8.19772 5.25259 8.19772 5.02513C8.19772 4.79767 8.10535 4.57368 7.94371 4.41319C7.78322 4.25155 7.55923 4.15918 7.33177 4.15918C7.10431 4.15918 6.88032 4.25155 6.71983 4.41319C6.55819 4.57368 6.46582 4.79767 6.46582 5.02513C6.46582 5.25259 6.55819 5.47658 6.71983 5.63707C6.88032 5.79871 7.10431 5.89108 7.33177 5.89108Z" fill="#19B6DA"/>
<path d="M10.103 5.89132C10.3305 5.89132 10.5545 5.79896 10.715 5.63731C10.8766 5.47682 10.969 5.25283 10.969 5.02537C10.969 4.79792 10.8766 4.57392 10.715 4.41344C10.5545 4.25179 10.3305 4.15942 10.103 4.15942C9.87443 4.15942 9.65159 4.25179 9.4911 4.41344C9.32946 4.57392 9.23709 4.79792 9.23709 5.02537C9.23709 5.25283 9.32946 5.47682 9.4911 5.63731C9.65159 5.79896 9.87558 5.89132 10.103 5.89132Z" fill="#19B6DA"/>
<path d="M13.7976 5.89108H48.8974C49.3756 5.89108 49.7633 5.50336 49.7633 5.02513C49.7633 4.54689 49.3756 4.15918 48.8974 4.15918H13.7976C13.3194 4.15918 12.9316 4.54689 12.9316 5.02513C12.9316 5.50336 13.3194 5.89108 13.7976 5.89108Z" fill="#19B6DA"/>
<path d="M13.7759 34.999H45.2241C45.6526 34.999 46 34.5513 46 33.999C46 33.4468 45.6526 32.999 45.2241 32.999H13.7759C13.3474 32.999 13 33.4468 13 33.999C13 34.5513 13.3474 34.999 13.7759 34.999Z" fill="#19B6DA"/>
<path d="M13.7759 30.999H45.2241C45.6526 30.999 46 30.5513 46 29.999C46 29.4468 45.6526 28.999 45.2241 28.999H13.7759C13.3474 28.999 13 29.4468 13 29.999C13 30.5513 13.3474 30.999 13.7759 30.999Z" fill="#19B6DA"/>
<path d="M52.5922 5.89132H54.4395C54.9178 5.89132 55.3055 5.50361 55.3055 5.02537C55.3055 4.54714 54.9178 4.15942 54.4395 4.15942H52.5922C52.1139 4.15942 51.7262 4.54714 51.7262 5.02537C51.7262 5.50361 52.1139 5.89132 52.5922 5.89132Z" fill="#19B6DA"/>
<path d="M44.2632 17.999H25.7896C24.8028 17.999 24 18.8018 24 19.7887V23.4834C24 24.4702 24.8028 25.273 25.7896 25.273H44.2632C45.25 25.273 46.0528 24.4702 46.0528 23.4834V19.7887C46.0528 18.8018 45.25 17.999 44.2632 17.999ZM44.3209 23.4834C44.3209 23.5151 44.2951 23.5411 44.2632 23.5411H25.7896C25.7578 23.5411 25.7319 23.5151 25.7319 23.4834V19.7887C25.7319 19.7569 25.7578 19.7309 25.7896 19.7309H44.2632C44.2951 19.7309 44.3209 19.7569 44.3209 19.7887V23.4834Z" fill="#19B6DA"/>
<path d="M16.637 17.999C14.6316 17.999 13 19.6306 13 21.636C13 23.6414 14.6316 25.273 16.637 25.273C18.6424 25.273 20.274 23.6414 20.274 21.636C20.274 19.6306 18.6424 17.999 16.637 17.999ZM16.637 23.5411C15.5865 23.5411 14.7319 22.6865 14.7319 21.636C14.7319 20.5856 15.5865 19.7309 16.637 19.7309C17.6874 19.7309 18.5421 20.5856 18.5421 21.636C18.5421 22.6865 17.6874 23.5411 16.637 23.5411Z" fill="#19B6DA"/>
<path d="M54.4393 0.464844H4.56067C2.04595 0.464844 0 2.51079 0 5.02551V41.9727C0 44.4874 2.04595 46.5333 4.56067 46.5333H54.4393C56.9541 46.5333 59 44.4874 59 41.9727V5.02551C59 2.51079 56.9541 0.464844 54.4393 0.464844ZM4.56067 2.19674H54.4393C55.9991 2.19674 57.2681 3.46576 57.2681 5.02551V7.85428H1.7319V5.02551C1.7319 3.46576 3.00092 2.19674 4.56067 2.19674ZM54.4393 44.8014H4.56067C3.00092 44.8014 1.7319 43.5324 1.7319 41.9727V9.58617H57.2681V41.9727C57.2681 43.5324 55.9991 44.8014 54.4393 44.8014Z" fill="#19B6DA"/>
</svg>
