<svg width="59" height="47" viewBox="0 0 59 47" fill="none" xmlns="http://www.w3.org/2000/svg">
<path d="M4.56067 5.89236C4.78812 5.89236 5.01211 5.79999 5.1726 5.63835C5.33425 5.47786 5.42662 5.25387 5.42662 5.02641C5.42662 4.79895 5.33425 4.57496 5.1726 4.41447C5.01211 4.25283 4.78928 4.16046 4.56067 4.16046C4.33206 4.16046 4.10922 4.25283 3.94873 4.41447C3.78709 4.57496 3.69472 4.79895 3.69472 5.02641C3.69472 5.25387 3.78709 5.47786 3.94873 5.63835C4.10922 5.79999 4.33321 5.89236 4.56067 5.89236Z" fill="#19B6DA"/>
<path d="M7.3317 5.89236C7.56031 5.89236 7.78315 5.79999 7.94364 5.63835C8.10528 5.47786 8.19765 5.25387 8.19765 5.02641C8.19765 4.79895 8.10528 4.57496 7.94364 4.41447C7.78315 4.25283 7.55916 4.16046 7.3317 4.16046C7.10424 4.16046 6.88025 4.25283 6.71976 4.41447C6.55812 4.57496 6.46575 4.79895 6.46575 5.02641C6.46575 5.25387 6.55812 5.47786 6.71976 5.63835C6.88025 5.79999 7.10424 5.89236 7.3317 5.89236Z" fill="#19B6DA"/>
<path d="M10.1027 5.89236C10.3302 5.89236 10.5542 5.79999 10.7147 5.63835C10.8763 5.47786 10.9687 5.25387 10.9687 5.02641C10.9687 4.79895 10.8763 4.57496 10.7147 4.41447C10.5542 4.25283 10.3302 4.16046 10.1027 4.16046C9.87529 4.16046 9.65129 4.25283 9.4908 4.41447C9.32916 4.57496 9.23679 4.79895 9.23679 5.02641C9.23679 5.25387 9.32916 5.47786 9.4908 5.63835C9.65129 5.79999 9.87529 5.89236 10.1027 5.89236Z" fill="#19B6DA"/>
<path d="M13.7975 5.89236H48.8973C49.3755 5.89236 49.7632 5.50465 49.7632 5.02641C49.7632 4.54818 49.3755 4.16046 48.8973 4.16046H13.7975C13.3192 4.16046 12.9315 4.54818 12.9315 5.02641C12.9315 5.50465 13.3192 5.89236 13.7975 5.89236Z" fill="#19B6DA"/>
<path d="M52.592 5.89236H54.4393C54.9176 5.89236 55.3053 5.50465 55.3053 5.02641C55.3053 4.54818 54.9176 4.16046 54.4393 4.16046H52.592C52.1137 4.16046 51.726 4.54818 51.726 5.02641C51.726 5.50465 52.1137 5.89236 52.592 5.89236Z" fill="#19B6DA"/>
<path d="M50.7445 13.3954H34.1183C32.6222 13.3954 31.405 14.6126 31.405 16.1088V16.1665H30.4236C28.9275 16.1665 27.7103 17.3837 27.7103 18.8798V26.327H25.7475V23.4982C25.7475 22.0021 24.5303 20.7849 23.0342 20.7849H8.2553C6.75917 20.7849 5.54199 22.0021 5.54199 23.4982V30.8876C5.54199 32.3837 6.75917 33.6009 8.2553 33.6009H23.0342C24.5303 33.6009 25.7475 32.3837 25.7475 30.8876V28.0589H27.7103V35.506C27.7103 37.0021 28.9275 38.2193 30.4236 38.2193H31.405V38.2771C31.405 39.7732 32.6222 40.9904 34.1183 40.9904H50.7445C52.2407 40.9904 53.4578 39.7732 53.4578 38.2771V36.4297C53.4578 34.9336 52.2407 33.7164 50.7445 33.7164H34.1183C32.6222 33.7164 31.405 34.9336 31.405 36.4297V36.4874H30.4236C29.8824 36.4874 29.4422 36.0472 29.4422 35.506V28.0589H31.405V28.1166C31.405 29.6127 32.6222 30.8299 34.1183 30.8299H50.7445C52.2407 30.8299 53.4578 29.6127 53.4578 28.1166V26.2692C53.4578 24.7731 52.2407 23.5559 50.7445 23.5559H34.1183C32.6222 23.5559 31.405 24.7731 31.405 26.2692V26.327H29.4422V18.8798C29.4422 18.3386 29.8824 17.8984 30.4236 17.8984H31.405V17.9561C31.405 19.4522 32.6222 20.6694 34.1183 20.6694H50.7445C52.2407 20.6694 53.4578 19.4522 53.4578 17.9561V16.1088C53.4578 14.6126 52.2407 13.3954 50.7445 13.3954ZM24.0156 30.8876C24.0156 31.4288 23.5753 31.869 23.0342 31.869H8.2553C7.71414 31.869 7.27389 31.4288 7.27389 30.8876V23.4982C7.27389 22.957 7.71414 22.5168 8.2553 22.5168H23.0342C23.5753 22.5168 24.0156 22.957 24.0156 23.4982V30.8876ZM33.1369 36.4297C33.1369 35.8885 33.5772 35.4483 34.1183 35.4483H50.7445C51.2857 35.4483 51.7259 35.8885 51.7259 36.4297V38.2771C51.7259 38.8182 51.2857 39.2585 50.7445 39.2585H34.1183C33.5772 39.2585 33.1369 38.8182 33.1369 38.2771V36.4297ZM33.1369 26.2692C33.1369 25.7281 33.5772 25.2878 34.1183 25.2878H50.7445C51.2857 25.2878 51.7259 25.7281 51.7259 26.2692V28.1166C51.7259 28.6577 51.2857 29.098 50.7445 29.098H34.1183C33.5772 29.098 33.1369 28.6577 33.1369 28.1166V26.2692ZM51.7259 17.9561C51.7259 18.4973 51.2857 18.9375 50.7445 18.9375H34.1183C33.5772 18.9375 33.1369 18.4973 33.1369 17.9561V16.1088C33.1369 15.5676 33.5772 15.1273 34.1183 15.1273H50.7445C51.2857 15.1273 51.7259 15.5676 51.7259 16.1088V17.9561Z" fill="#19B6DA"/>
<path d="M54.4393 0.465759H4.56067C2.04595 0.465759 0 2.51171 0 5.02642V41.9736C0 44.4883 2.04595 46.5343 4.56067 46.5343H54.4393C56.9541 46.5343 59 44.4883 59 41.9736V5.02642C59 2.51171 56.9541 0.465759 54.4393 0.465759ZM4.56067 2.19766H54.4393C55.9991 2.19766 57.2681 3.46668 57.2681 5.02642V7.85519H1.7319V5.02642C1.7319 3.46668 3.00092 2.19766 4.56067 2.19766ZM54.4393 44.8024H4.56067C3.00092 44.8024 1.7319 43.5333 1.7319 41.9736V9.58709H57.2681V41.9736C57.2681 43.5333 55.9991 44.8024 54.4393 44.8024Z" fill="#19B6DA"/>
</svg>
