<svg width="24" height="24" viewBox="0 0 24 24" fill="none" xmlns="http://www.w3.org/2000/svg">
<path d="M23.3457 7.37533L21.3488 5.38058C21.1051 5.13686 20.7788 5 20.4338 5C20.0888 5 19.7625 5.13498 19.5188 5.38058L17.3682 7.52718C17.1244 7.7709 16.9875 8.09899 16.9875 8.44394C16.9875 8.79078 17.1225 9.11511 17.3682 9.36071L19.0482 11.0424C18.6654 11.934 18.1155 12.7441 17.4282 13.4289C16.74 14.1207 15.9357 14.6663 15.0432 15.0525L13.3631 13.3708C13.1194 13.1271 12.7931 12.9903 12.4481 12.9903C12.278 12.9896 12.1094 13.023 11.9523 13.0883C11.7951 13.1537 11.6527 13.2497 11.5331 13.3708L9.38063 15.5174C9.13688 15.7612 9 16.0892 9 16.4342C9 16.781 9.135 17.1054 9.38063 17.351L11.3756 19.3457C11.7919 19.7619 12.3656 20 12.9544 20C13.0763 20 13.1944 19.9906 13.3144 19.97C15.7969 19.5613 18.2607 18.2396 20.25 16.2523C22.2376 14.2613 23.5576 11.7979 23.9701 9.31384C24.0882 8.60892 23.8519 7.88339 23.3457 7.37533V7.37533ZM22.6407 9.09074C22.2751 11.3011 21.0863 13.5058 19.2957 15.2962C17.505 17.0866 15.3019 18.2752 13.0913 18.6408C12.8138 18.6877 12.5288 18.5939 12.3263 18.3933L10.3669 16.4342L12.4444 14.3551L14.6906 16.6048L14.7075 16.6217L15.1125 16.4717C16.3405 16.0203 17.4557 15.3072 18.3806 14.382C19.3056 13.4568 20.0184 12.3416 20.4694 11.1136L20.6194 10.7087L18.3544 8.44582L20.4319 6.3667L22.3913 8.32583C22.5938 8.52831 22.6876 8.81327 22.6407 9.09074Z" fill="#F2F3F3"/>
</svg>
