<svg width="87" height="87" viewBox="0 0 87 87" fill="none" xmlns="http://www.w3.org/2000/svg">
<circle cx="43.5" cy="43.5" r="43.5" fill="#19B6DA"/>
<path d="M39.25 22.5C36.4652 22.5 33.7945 23.6062 31.8254 25.5754C29.8562 27.5445 28.75 30.2152 28.75 33C28.75 35.7848 29.8562 38.4555 31.8254 40.4246C33.7945 42.3938 36.4652 43.5 39.25 43.5C42.0348 43.5 44.7055 42.3938 46.6746 40.4246C48.6438 38.4555 49.75 35.7848 49.75 33C49.75 30.2152 48.6438 27.5445 46.6746 25.5754C44.7055 23.6062 42.0348 22.5 39.25 22.5ZM39.25 27.75C40.6424 27.75 41.9777 28.3031 42.9623 29.2877C43.9469 30.2723 44.5 31.6076 44.5 33C44.5 34.3924 43.9469 35.7277 42.9623 36.7123C41.9777 37.6969 40.6424 38.25 39.25 38.25C37.8576 38.25 36.5223 37.6969 35.5377 36.7123C34.5531 35.7277 34 34.3924 34 33C34 31.6076 34.5531 30.2723 35.5377 29.2877C36.5223 28.3031 37.8576 27.75 39.25 27.75ZM57.625 43.5C57.205 43.5 56.995 43.71 56.995 44.13L56.3125 47.4375C55.735 47.91 54.895 48.33 54.265 48.75L50.905 47.4375C50.695 47.4375 50.275 47.4375 50.065 47.7L47.545 52.32C47.335 52.53 47.335 52.95 47.755 53.16L50.485 55.3125V57.9375L47.755 60.09C47.545 60.3 47.335 60.72 47.545 60.93L50.065 65.55C50.275 65.8125 50.695 65.8125 50.905 65.8125L54.265 64.5C54.895 64.92 55.735 65.34 56.3125 65.8125L56.995 69.12C56.995 69.54 57.205 69.75 57.625 69.75H62.875C63.085 69.75 63.505 69.54 63.505 69.12L63.925 65.8125C64.765 65.34 65.605 64.92 66.235 64.5L69.4375 65.8125C69.805 65.8125 70.225 65.8125 70.225 65.55L72.955 60.93C73.165 60.72 72.955 60.3 72.745 60.09L70.015 57.9375V55.3125L72.745 53.16C72.955 52.95 73.165 52.53 72.955 52.32L70.225 47.7C70.225 47.4375 69.805 47.4375 69.4375 47.4375L66.235 48.75C65.605 48.33 64.765 47.91 63.925 47.4375L63.505 44.13C63.505 43.71 63.085 43.5 62.875 43.5H57.625ZM39.25 46.125C32.2413 46.125 18.25 49.6162 18.25 56.625V64.5H43.6338C42.8988 62.9512 42.3738 61.2713 42.1113 59.5125H23.2375V56.625C23.2375 54.945 31.4538 51.1125 39.25 51.1125C40.3788 51.1125 41.5338 51.2175 42.6625 51.375C43.1875 49.695 43.8963 48.12 44.815 46.6763C42.7675 46.335 40.825 46.125 39.25 46.125ZM60.355 52.6875C62.455 52.6875 64.1875 54.42 64.1875 56.73C64.1875 58.83 62.455 60.5625 60.355 60.5625C58.045 60.5625 56.3125 58.83 56.3125 56.73C56.3125 54.42 58.045 52.6875 60.355 52.6875Z" fill="#F2F3F3"/>
</svg>
