<svg width="24" height="24" viewBox="0 0 24 24" fill="none" xmlns="http://www.w3.org/2000/svg">
<path d="M6.4917 2.25C6.09945 2.25 5.71169 2.3925 5.38919 2.6475L5.34419 2.67225L5.32019 2.69475L2.97644 5.10975L2.99894 5.13225C2.27669 5.80125 2.05169 6.80025 2.36594 7.66425C2.36744 7.668 2.36444 7.68225 2.36594 7.68675C3.00119 9.50775 4.62869 13.0192 7.80345 16.1947C10.9909 19.3822 14.5512 20.9423 16.3114 21.6322H16.3339C16.7754 21.7778 17.247 21.8068 17.703 21.7164C18.159 21.626 18.5839 21.4193 18.9364 21.1163L18.9589 21.0938L18.9829 21.0697L21.3049 18.75C21.9274 18.1275 21.9274 17.052 21.3049 16.4295L18.2584 13.383L18.2344 13.3358C17.6119 12.7133 16.5132 12.7133 15.8907 13.3358L15.8682 13.3597L14.3907 14.8373C13.2649 14.2963 12.2294 13.5847 11.3209 12.7275C10.0939 11.5552 9.46545 10.2075 9.23595 9.6795L10.7344 8.1795C11.3659 7.548 11.3757 6.5025 10.7119 5.883L10.7344 5.859L10.6647 5.78925L7.6647 2.69475L7.63995 2.67225L7.59345 2.6475C7.28136 2.39433 6.89278 2.25423 6.49094 2.25H6.4917ZM6.4917 3.75C6.5472 3.75 6.60195 3.777 6.6567 3.8205L9.6567 6.89025L9.7032 6.9375L9.7257 6.96C9.72045 6.95625 9.7707 7.03275 9.6792 7.125L7.8042 9L7.4517 9.3285L7.6167 9.7965C7.6167 9.7965 8.4792 12.1012 10.2889 13.8285L10.4517 13.9688C12.1947 15.5603 14.2497 16.4288 14.2497 16.4288L14.7184 16.6403L15.0709 16.2892L16.9459 14.4142C17.0734 14.2867 17.0509 14.2867 17.1784 14.4142L20.2497 17.484C20.3772 17.6115 20.3772 17.5665 20.2497 17.694L17.9524 19.9913C17.6074 20.2882 17.2422 20.3482 16.8049 20.2028C15.1039 19.5352 11.8024 18.0825 8.8587 15.1403C5.89245 12.1725 4.34219 8.805 3.77369 7.17225C3.65894 6.867 3.74144 6.41475 4.00769 6.1875L4.03019 6.165L4.05419 6.14025L6.3282 3.8205C6.37283 3.77914 6.43025 3.75427 6.49094 3.75H6.4917Z" fill="#2A3D42" fill-opacity="0.7"/>
</svg>
