<svg width="47" height="33" viewBox="0 0 47 33" fill="none" xmlns="http://www.w3.org/2000/svg">
<path d="M4.1748 17.6211H0.773438V15.6963H4.1748V12.2686H6.09961V15.6963H9.50098V17.6211H6.09961V21.0049H4.1748V17.6211Z" fill="#2A3D42" fill-opacity="0.7"/>
<path d="M41.0754 11.935C41.0594 11.891 41.0463 11.8484 41.0273 11.8058C40.9582 11.6565 40.8614 11.5201 40.7415 11.4029L31.9915 3.15287C31.8672 3.03983 31.7225 2.94857 31.5642 2.88337C31.5204 2.86412 31.4738 2.85312 31.4271 2.838C31.3051 2.79885 31.1781 2.77526 31.0494 2.76788C31.0173 2.76513 30.9896 2.75 30.959 2.75H20.7507C19.1421 2.75 17.834 3.98337 17.834 5.5V27.5C17.834 29.0166 19.1421 30.25 20.7507 30.25H38.2507C39.8592 30.25 41.1673 29.0166 41.1673 27.5V12.375C41.1673 12.3461 41.1513 12.32 41.1484 12.2897C41.1409 12.169 41.1164 12.0497 41.0754 11.935ZM36.1886 11H32.4173V7.44425L36.1886 11ZM20.7507 27.5V5.5H29.5007V12.375C29.5007 12.7397 29.6543 13.0894 29.9278 13.3473C30.2013 13.6051 30.5722 13.75 30.959 13.75H38.2507L38.2536 27.5H20.7507Z" fill="#2A3D42" fill-opacity="0.7"/>
</svg>
