<svg width="17" height="17" viewBox="0 0 17 17" fill="none" xmlns="http://www.w3.org/2000/svg">
<path d="M4.59857 1.59375C4.32072 1.59375 4.04607 1.69469 3.81763 1.87531L3.78576 1.89284L3.76876 1.90878L2.1086 3.61941L2.12454 3.63534C1.61294 4.10922 1.45357 4.81684 1.67616 5.42884C1.67722 5.4315 1.6751 5.44159 1.67616 5.44478C2.12613 6.73466 3.27894 9.22197 5.52772 11.4713C7.78554 13.7291 10.3074 14.8341 11.5542 15.3228H11.5702C11.8829 15.426 12.2169 15.4465 12.5399 15.3825C12.8629 15.3184 13.1639 15.172 13.4136 14.9573L13.4295 14.9414L13.4465 14.9244L15.0913 13.2812C15.5322 12.8403 15.5322 12.0785 15.0913 11.6376L12.9333 9.47962L12.9163 9.44616C12.4754 9.00522 11.6971 9.00522 11.2562 9.44616L11.2403 9.46316L10.1937 10.5097C9.39624 10.1266 8.66279 9.62247 8.01929 9.01531C7.15016 8.18497 6.70497 7.23031 6.54241 6.85631L7.60385 5.79381C8.05116 5.3465 8.05807 4.60594 7.58791 4.16712L7.60385 4.15012L7.55444 4.10072L5.42944 1.90878L5.41191 1.89284L5.37897 1.87531C5.15791 1.69598 4.88267 1.59675 4.59804 1.59375H4.59857ZM4.59857 2.65625C4.63788 2.65625 4.67666 2.67537 4.71544 2.70619L6.84044 4.88059L6.87338 4.91406L6.88932 4.93C6.8856 4.92734 6.92119 4.98153 6.85638 5.04688L5.52826 6.375L5.27857 6.60769L5.39544 6.93919C5.39544 6.93919 6.00638 8.57172 7.28829 9.79519L7.40357 9.89453C8.63819 11.0218 10.0938 11.637 10.0938 11.637L10.4258 11.7868L10.6755 11.5382L12.0037 10.2101C12.094 10.1198 12.078 10.1198 12.1683 10.2101L14.3438 12.3845C14.4341 12.4748 14.4341 12.4429 14.3438 12.5332L12.7166 14.1605C12.4722 14.3708 12.2135 14.4133 11.9038 14.3103C10.6989 13.8375 8.36035 12.8084 6.27519 10.7243C4.1741 8.62219 3.07601 6.23688 2.67332 5.08034C2.59204 4.86412 2.65047 4.54378 2.83907 4.38281L2.85501 4.36688L2.87201 4.34934L4.48276 2.70619C4.51437 2.67689 4.55504 2.65927 4.59804 2.65625H4.59857Z" fill="#F2F3F3" fill-opacity="0.7"/>
</svg>
