<svg width="17" height="17" viewBox="0 0 17 17" fill="none" xmlns="http://www.w3.org/2000/svg">
<path d="M15.7713 1.71825C15.5696 1.55048 15.3262 1.44054 15.067 1.40013C14.8078 1.35972 14.5425 1.39034 14.2994 1.48875L1.60532 6.61354C1.33393 6.72524 1.10291 6.91682 0.942918 7.16287C0.782929 7.40891 0.70153 7.69778 0.709521 7.99115C0.717513 8.28453 0.814516 8.56854 0.987663 8.80551C1.16081 9.04247 1.40191 9.22119 1.67899 9.31796L4.2467 10.2112L5.67753 14.9443C5.69714 15.0074 5.72551 15.0675 5.76182 15.1227C5.76749 15.1312 5.77528 15.1369 5.78095 15.1461C5.82269 15.2042 5.87309 15.2556 5.9304 15.2984C5.9464 15.3109 5.96294 15.3228 5.97999 15.3338C6.04708 15.3784 6.12137 15.411 6.19957 15.4302L6.20878 15.4309L6.21303 15.433C6.26037 15.4425 6.30854 15.4473 6.35682 15.4472L6.36957 15.445C6.44211 15.4438 6.51403 15.4314 6.58278 15.4082C6.59907 15.4025 6.61253 15.394 6.62811 15.387C6.67954 15.3659 6.72828 15.3388 6.77332 15.3062C6.8092 15.2757 6.84509 15.2453 6.88099 15.2148L8.7949 13.1019L11.6495 15.3133C11.9007 15.509 12.21 15.6154 12.5285 15.6157C12.8623 15.6154 13.1858 15.5002 13.4448 15.2896C13.7038 15.079 13.8824 14.7858 13.9509 14.459L16.2622 3.11367C16.3144 2.85842 16.2964 2.59377 16.2099 2.34799C16.1235 2.10222 15.9718 1.88455 15.7713 1.71825ZM6.63732 10.4364C6.53922 10.5343 6.4722 10.659 6.44465 10.7948L6.22507 11.8602L5.66974 10.0235L8.54911 8.52392L6.63732 10.4364ZM12.5179 14.1934L9.14411 11.5797C9.00294 11.4707 8.82592 11.419 8.6483 11.4347C8.47069 11.4505 8.30553 11.5326 8.18574 11.6647L7.57232 12.3411L7.78907 11.2878L12.8062 6.27071C12.9252 6.15094 12.9976 5.99258 13.0102 5.82419C13.0228 5.65579 12.9748 5.48844 12.8749 5.3523C12.775 5.21616 12.6297 5.12019 12.4653 5.08169C12.3009 5.04319 12.1281 5.0647 11.9782 5.14233L4.77795 8.89083L2.1394 7.92537L14.8745 2.83175L12.5179 14.1934Z" fill="#F2F3F3" fill-opacity="0.7"/>
</svg>
