<svg width="26" height="26" viewBox="0 0 26 26" fill="none" xmlns="http://www.w3.org/2000/svg">
<path d="M24.1204 2.63021C23.812 2.37363 23.4398 2.20548 23.0433 2.14368C22.6469 2.08187 22.2412 2.12871 21.8693 2.27921L2.45485 10.1171C2.03978 10.288 1.68646 10.581 1.44177 10.9573C1.19708 11.3336 1.07258 11.7754 1.08481 12.2241C1.09703 12.6728 1.24539 13.1071 1.5102 13.4695C1.77501 13.832 2.14376 14.1053 2.56752 14.2533L6.4946 15.6194L8.68294 22.8582C8.71293 22.9548 8.75632 23.0467 8.81185 23.1312C8.82052 23.1442 8.83244 23.1529 8.8411 23.167C8.90494 23.2558 8.98203 23.3344 9.06969 23.3999C9.09415 23.419 9.11945 23.4371 9.14552 23.454C9.24813 23.5221 9.36175 23.572 9.48135 23.6014L9.49544 23.6025L9.50194 23.6057C9.57434 23.6202 9.64801 23.6275 9.72185 23.6274L9.74135 23.6241C9.8523 23.6223 9.9623 23.6033 10.0674 23.5678C10.0924 23.5591 10.1129 23.5461 10.1368 23.5353C10.2154 23.503 10.29 23.4616 10.3589 23.4118C10.4137 23.3652 10.4686 23.3186 10.5235 23.272L13.4507 20.0405L17.8165 23.4226C18.2008 23.7219 18.6738 23.8847 19.1609 23.8852C19.6714 23.8846 20.1662 23.7085 20.5623 23.3864C20.9584 23.0643 21.2316 22.6158 21.3363 22.1161L24.8712 4.76437C24.9511 4.374 24.9235 3.96924 24.7913 3.59335C24.6591 3.21745 24.4272 2.88455 24.1204 2.63021ZM10.1509 15.9639C10.0008 16.1136 9.89831 16.3043 9.85618 16.512L9.52035 18.1414L8.67102 15.3323L13.0748 13.0389L10.1509 15.9639ZM19.1447 21.7099L13.9848 17.7124C13.7689 17.5458 13.4981 17.4666 13.2265 17.4907C12.9548 17.5148 12.7022 17.6404 12.519 17.8424L11.5809 18.877L11.9124 17.266L19.5856 9.59279C19.7677 9.40962 19.8783 9.16742 19.8976 8.90988C19.9168 8.65234 19.8434 8.39639 19.6906 8.18817C19.5378 7.97996 19.3157 7.83318 19.0642 7.7743C18.8128 7.71542 18.5485 7.74831 18.3192 7.86704L7.3071 13.6L3.27168 12.1235L22.7489 4.33321L19.1447 21.7099Z" fill="#2A3D42" fill-opacity="0.7"/>
</svg>
