<svg width="30" height="30" viewBox="0 0 30 30" fill="none" xmlns="http://www.w3.org/2000/svg">
<path d="M14.9987 9.22266C13.4658 9.22266 11.9956 9.83162 10.9117 10.9156C9.82771 11.9995 9.21875 13.4697 9.21875 15.0027C9.21875 16.5356 9.82771 18.0058 10.9117 19.0897C11.9956 20.1737 13.4658 20.7827 14.9987 20.7827C16.5317 20.7827 18.0019 20.1737 19.0858 19.0897C20.1698 18.0058 20.7787 16.5356 20.7787 15.0027C20.7787 13.4697 20.1698 11.9995 19.0858 10.9156C18.0019 9.83162 16.5317 9.22266 14.9987 9.22266ZM14.9987 18.7564C14.0029 18.7564 13.0478 18.3608 12.3436 17.6566C11.6394 16.9524 11.2437 15.9973 11.2437 15.0014C11.2437 14.0055 11.6394 13.0504 12.3436 12.3462C13.0478 11.642 14.0029 11.2464 14.9987 11.2464C15.9946 11.2464 16.9497 11.642 17.6539 12.3462C18.3581 13.0504 18.7537 14.0055 18.7537 15.0014C18.7537 15.9973 18.3581 16.9524 17.6539 17.6566C16.9497 18.3608 15.9946 18.7564 14.9987 18.7564Z" fill="#F2F3F3" fill-opacity="0.7"/>
<path d="M21.0077 10.3552C21.7519 10.3552 22.3552 9.75186 22.3552 9.00766C22.3552 8.26345 21.7519 7.66016 21.0077 7.66016C20.2635 7.66016 19.6602 8.26345 19.6602 9.00766C19.6602 9.75186 20.2635 10.3552 21.0077 10.3552Z" fill="#F2F3F3" fill-opacity="0.7"/>
<path d="M25.6657 7.64031C25.3763 6.89304 24.9341 6.21442 24.3674 5.64789C23.8006 5.08136 23.1218 4.6394 22.3745 4.35031C21.4999 4.02201 20.5759 3.84449 19.642 3.82531C18.4382 3.77281 18.057 3.75781 15.0045 3.75781C11.952 3.75781 11.5607 3.75781 10.367 3.82531C9.43369 3.84351 8.5104 4.02106 7.63695 4.35031C6.88937 4.63906 6.21041 5.0809 5.64362 5.64747C5.07683 6.21405 4.63474 6.89284 4.3457 7.64031C4.01733 8.51483 3.84022 9.43886 3.82195 10.3728C3.7682 11.5753 3.75195 11.9566 3.75195 15.0103C3.75195 18.0628 3.75195 18.4516 3.82195 19.6478C3.8407 20.5828 4.01695 21.5053 4.3457 22.3816C4.63555 23.1288 5.07807 23.8073 5.645 24.3738C6.21192 24.9403 6.89078 25.3823 7.6382 25.6716C8.50999 26.0131 9.43367 26.2033 10.3695 26.2341C11.5732 26.2866 11.9545 26.3028 15.007 26.3028C18.0595 26.3028 18.4507 26.3028 19.6445 26.2341C20.5783 26.2151 21.5022 26.038 22.377 25.7103C23.1241 25.4205 23.8027 24.9782 24.3694 24.4115C24.9361 23.8448 25.3784 23.1663 25.6682 22.4191C25.997 21.5441 26.1732 20.6216 26.192 19.6866C26.2457 18.4841 26.262 18.1028 26.262 15.0491C26.262 11.9953 26.262 11.6078 26.192 10.4116C26.1774 9.4644 25.9994 8.52687 25.6657 7.64031ZM24.1432 19.5553C24.1351 20.2757 24.0037 20.9894 23.7545 21.6653C23.5667 22.1514 23.2794 22.5928 22.9108 22.9612C22.5422 23.3295 22.1006 23.6166 21.6145 23.8041C20.946 24.0521 20.2399 24.1836 19.527 24.1928C18.3395 24.2478 18.0045 24.2616 14.9595 24.2616C11.912 24.2616 11.6007 24.2616 10.3907 24.1928C9.67811 24.1841 8.97236 24.0526 8.30445 23.8041C7.81656 23.6178 7.37321 23.3312 7.00307 22.9628C6.63293 22.5943 6.34425 22.1523 6.1557 21.6653C5.91001 20.9966 5.77859 20.2914 5.76695 19.5791C5.7132 18.3916 5.7007 18.0566 5.7007 15.0116C5.7007 11.9653 5.7007 11.6541 5.76695 10.4428C5.77503 9.72284 5.90652 9.00959 6.1557 8.33406C6.53695 7.34781 7.3182 6.57156 8.30445 6.19406C8.97269 5.94674 9.67823 5.81527 10.3907 5.80531C11.5795 5.75156 11.9132 5.73656 14.9595 5.73656C18.0057 5.73656 18.3182 5.73656 19.527 5.80531C20.24 5.81389 20.9462 5.9454 21.6145 6.19406C22.1006 6.3819 22.5421 6.66932 22.9107 7.03785C23.2792 7.40639 23.5666 7.8479 23.7545 8.33406C24.0001 9.00275 24.1316 9.70801 24.1432 10.4203C24.197 11.6091 24.2107 11.9428 24.2107 14.9891C24.2107 18.0341 24.2107 18.3616 24.157 19.5566H24.1432V19.5553Z" fill="#F2F3F3" fill-opacity="0.7"/>
</svg>
