<svg width="59" height="47" viewBox="0 0 59 47" fill="none" xmlns="http://www.w3.org/2000/svg">
<path d="M4.56056 5.89132C4.78802 5.89132 5.01201 5.79896 5.1725 5.63731C5.33414 5.47682 5.42651 5.25398 5.42651 5.02537C5.42651 4.79792 5.33414 4.57392 5.1725 4.41344C5.01201 4.25179 4.78802 4.15942 4.56056 4.15942C4.3331 4.15942 4.10911 4.25179 3.94862 4.41344C3.78698 4.57392 3.69461 4.79792 3.69461 5.02537C3.69461 5.25283 3.78698 5.47682 3.94862 5.63731C4.10911 5.79896 4.3331 5.89132 4.56056 5.89132Z" fill="#19B6DA"/>
<path d="M7.3318 5.89132C7.55926 5.89132 7.78325 5.79896 7.94374 5.63731C8.10538 5.47682 8.19775 5.25283 8.19775 5.02537C8.19775 4.79792 8.10538 4.57392 7.94374 4.41344C7.78325 4.25179 7.55926 4.15942 7.3318 4.15942C7.10434 4.15942 6.88035 4.25179 6.71986 4.41344C6.55822 4.57392 6.46585 4.79792 6.46585 5.02537C6.46585 5.25283 6.55822 5.47682 6.71986 5.63731C6.88035 5.79896 7.10434 5.89132 7.3318 5.89132Z" fill="#19B6DA"/>
<path d="M10.103 5.89132C10.3305 5.89132 10.5545 5.79896 10.715 5.63731C10.8766 5.47682 10.969 5.25283 10.969 5.02537C10.969 4.79792 10.8766 4.57392 10.715 4.41344C10.5545 4.25179 10.3305 4.15942 10.103 4.15942C9.87443 4.15942 9.65159 4.25179 9.4911 4.41344C9.32946 4.57392 9.23709 4.79792 9.23709 5.02537C9.23709 5.25283 9.32946 5.47682 9.4911 5.63731C9.65159 5.79896 9.87558 5.89132 10.103 5.89132Z" fill="#19B6DA"/>
<path d="M13.7977 5.89132H48.8974C49.3757 5.89132 49.7634 5.50361 49.7634 5.02537C49.7634 4.54714 49.3757 4.15942 48.8974 4.15942H13.7977C13.3194 4.15942 12.9317 4.54714 12.9317 5.02537C12.9317 5.50361 13.3194 5.89132 13.7977 5.89132Z" fill="#19B6DA"/>
<path d="M52.5922 5.89132H54.4395C54.9178 5.89132 55.3055 5.50361 55.3055 5.02537C55.3055 4.54714 54.9178 4.15942 54.4395 4.15942H52.5922C52.1139 4.15942 51.7262 4.54714 51.7262 5.02537C51.7262 5.50361 52.1139 5.89132 52.5922 5.89132Z" fill="#19B6DA"/>
<path d="M25.8057 13.3984H7.33211C6.34527 13.3984 5.54248 14.2012 5.54248 15.1881V18.8828C5.54248 19.8696 6.34527 20.6724 7.33211 20.6724H25.8057C26.7925 20.6724 27.5953 19.8696 27.5953 18.8828V15.1881C27.5953 14.2012 26.7925 13.3984 25.8057 13.3984ZM25.8634 18.8828C25.8634 18.9145 25.8376 18.9405 25.8057 18.9405H7.33211C7.30024 18.9405 7.27438 18.9145 7.27438 18.8828V15.1881C7.27438 15.1563 7.30024 15.1303 7.33211 15.1303H25.8057C25.8376 15.1303 25.8634 15.1563 25.8634 15.1881V18.8828Z" fill="#19B6DA"/>
<path d="M52.592 16.1672H46.8497C46.4874 15.0946 45.4723 14.3199 44.2789 14.3199C43.0855 14.3199 42.0704 15.0946 41.708 16.1672H39.6605C39.1822 16.1672 38.7945 16.555 38.7945 17.0332C38.7945 17.5114 39.1822 17.8991 39.6605 17.8991H41.708C42.0704 18.9718 43.0855 19.7465 44.2789 19.7465C45.4723 19.7465 46.4874 18.9718 46.8497 17.8991H52.592C53.0702 17.8991 53.4579 17.5114 53.4579 17.0332C53.4579 16.555 53.0702 16.1672 52.592 16.1672ZM44.2789 18.0146C43.7377 18.0146 43.2975 17.5743 43.2975 17.0332C43.2975 16.492 43.7377 16.0518 44.2789 16.0518C44.82 16.0518 45.2603 16.492 45.2603 17.0332C45.2603 17.5743 44.82 18.0146 44.2789 18.0146Z" fill="#19B6DA"/>
<path d="M33.1944 13.3984C31.1889 13.3984 29.5574 15.03 29.5574 17.0354C29.5574 19.0409 31.1889 20.6724 33.1944 20.6724C35.1998 20.6724 36.8313 19.0409 36.8313 17.0354C36.8313 15.03 35.1998 13.3984 33.1944 13.3984ZM33.1944 18.9405C32.1439 18.9405 31.2893 18.0859 31.2893 17.0354C31.2893 15.985 32.1439 15.1303 33.1944 15.1303C34.2448 15.1303 35.0994 15.985 35.0994 17.0354C35.0994 18.0859 34.2448 18.9405 33.1944 18.9405Z" fill="#19B6DA"/>
<path d="M25.8057 23.5586H7.33211C6.34527 23.5586 5.54248 24.3614 5.54248 25.3482V29.0429C5.54248 30.0298 6.34527 30.8326 7.33211 30.8326H25.8057C26.7925 30.8326 27.5953 30.0298 27.5953 29.0429V25.3482C27.5953 24.3614 26.7925 23.5586 25.8057 23.5586ZM25.8634 29.0429C25.8634 29.0747 25.8376 29.1007 25.8057 29.1007H7.33211C7.30024 29.1007 7.27438 29.0747 7.27438 29.0429V25.3482C7.27438 25.3165 7.30024 25.2905 7.33211 25.2905H25.8057C25.8376 25.2905 25.8634 25.3165 25.8634 25.3482V29.0429Z" fill="#19B6DA"/>
<path d="M52.592 26.3281H51.4676C51.1053 25.2555 50.0902 24.4808 48.8968 24.4808C47.7034 24.4808 46.6883 25.2555 46.326 26.3281H39.6605C39.1822 26.3281 38.7945 26.7158 38.7945 27.1941C38.7945 27.6723 39.1822 28.06 39.6605 28.06H46.3261C46.6884 29.1327 47.7035 29.9074 48.8969 29.9074C50.0903 29.9074 51.1055 29.1327 51.4678 28.06H52.5921C53.0704 28.06 53.4581 27.6723 53.4581 27.1941C53.4581 26.7158 53.0702 26.3281 52.592 26.3281ZM48.8969 28.1755C48.3558 28.1755 47.9155 27.7352 47.9155 27.1941C47.9155 26.6529 48.3558 26.2127 48.8969 26.2127C49.4381 26.2127 49.8783 26.6529 49.8783 27.1941C49.8783 27.7352 49.4381 28.1755 48.8969 28.1755Z" fill="#19B6DA"/>
<path d="M33.1944 23.5586C31.1889 23.5586 29.5574 25.1902 29.5574 27.1956C29.5574 29.201 31.1889 30.8326 33.1944 30.8326C35.1998 30.8326 36.8313 29.201 36.8313 27.1956C36.8313 25.1902 35.1998 23.5586 33.1944 23.5586ZM33.1944 29.1007C32.1439 29.1007 31.2893 28.246 31.2893 27.1956C31.2893 26.1451 32.1439 25.2905 33.1944 25.2905C34.2448 25.2905 35.0994 26.1451 35.0994 27.1956C35.0994 28.246 34.2448 29.1007 33.1944 29.1007Z" fill="#19B6DA"/>
<path d="M25.8057 33.7188H7.33211C6.34527 33.7188 5.54248 34.5215 5.54248 35.5084V39.2031C5.54248 40.1899 6.34527 40.9927 7.33211 40.9927H25.8057C26.7925 40.9927 27.5953 40.1899 27.5953 39.2031V35.5084C27.5953 34.5215 26.7925 33.7188 25.8057 33.7188ZM25.8634 39.2031C25.8634 39.2348 25.8376 39.2608 25.8057 39.2608H7.33211C7.30024 39.2608 7.27438 39.2348 7.27438 39.2031V35.5084C7.27438 35.4766 7.30024 35.4506 7.33211 35.4506H25.8057C25.8376 35.4506 25.8634 35.4766 25.8634 35.5084V39.2031Z" fill="#19B6DA"/>
<path d="M52.592 36.4885H47.7729C47.4106 35.4159 46.3955 34.6412 45.2021 34.6412C44.0087 34.6412 42.9936 35.4159 42.6313 36.4885H39.6605C39.1822 36.4885 38.7945 36.8762 38.7945 37.3545C38.7945 37.8327 39.1822 38.2204 39.6605 38.2204H42.6314C42.9937 39.293 44.0088 40.0678 45.2022 40.0678C46.3956 40.0678 47.4107 39.293 47.773 38.2204H52.592C53.0702 38.2204 53.4579 37.8327 53.4579 37.3545C53.4579 36.8762 53.0702 36.4885 52.592 36.4885ZM45.2022 38.3359C44.661 38.3359 44.2208 37.8956 44.2208 37.3545C44.2208 36.8133 44.661 36.3731 45.2022 36.3731C45.7434 36.3731 46.1836 36.8133 46.1836 37.3545C46.1836 37.8956 45.7434 38.3359 45.2022 38.3359Z" fill="#19B6DA"/>
<path d="M33.1944 33.7188C31.1889 33.7188 29.5574 35.3503 29.5574 37.3557C29.5574 39.3612 31.1889 40.9927 33.1944 40.9927C35.1998 40.9927 36.8313 39.3612 36.8313 37.3557C36.8313 35.3503 35.1998 33.7188 33.1944 33.7188ZM33.1944 39.2608C32.1439 39.2608 31.2893 38.4062 31.2893 37.3557C31.2893 36.3053 32.1439 35.4506 33.1944 35.4506C34.2448 35.4506 35.0994 36.3053 35.0994 37.3557C35.0994 38.4062 34.2448 39.2608 33.1944 39.2608Z" fill="#19B6DA"/>
<path d="M54.4393 0.464844H4.56067C2.04595 0.464844 0 2.51079 0 5.02551V41.9727C0 44.4874 2.04595 46.5333 4.56067 46.5333H54.4393C56.9541 46.5333 59 44.4874 59 41.9727V5.02551C59 2.51079 56.9541 0.464844 54.4393 0.464844ZM4.56067 2.19674H54.4393C55.9991 2.19674 57.2681 3.46576 57.2681 5.02551V7.85428H1.7319V5.02551C1.7319 3.46576 3.00092 2.19674 4.56067 2.19674ZM54.4393 44.8014H4.56067C3.00092 44.8014 1.7319 43.5324 1.7319 41.9727V9.58617H57.2681V41.9727C57.2681 43.5324 55.9991 44.8014 54.4393 44.8014Z" fill="#19B6DA"/>
</svg>
