<svg width="87" height="87" viewBox="0 0 87 87" fill="none" xmlns="http://www.w3.org/2000/svg">
<circle cx="43.5" cy="43.5" r="43.5" fill="#F2F3F3"/>
<path d="M41.782 11.3857L15.457 26.5787V56.9743L41.782 72.177L68.107 56.9816V26.586L41.782 11.3809V11.3857ZM41.782 21.1357L57.2041 30.0326L41.782 38.9392L26.3624 30.0375L41.782 21.1357ZM64.909 29.8376L43.0008 42.4882V67.7822C43.0008 68.4525 42.4523 69.0009 41.782 69.0009C41.1117 69.0009 40.5633 68.4525 40.5633 67.7822V42.4809L18.6575 29.8303C18.3779 29.6687 18.1739 29.4026 18.0905 29.0906C18.0071 28.7786 18.051 28.4463 18.2126 28.1667C18.3742 27.8871 18.6403 27.6832 18.9523 27.5997C19.2643 27.5163 19.5966 27.5602 19.8762 27.7219L41.7845 40.3725L63.6976 27.7219C63.978 27.5611 64.3106 27.5181 64.6227 27.6021C64.9347 27.6862 65.2007 27.8905 65.3624 28.1704C65.5223 28.4512 65.5646 28.7838 65.4801 29.0957C65.3957 29.4076 65.1912 29.6734 64.9115 29.8352L64.909 29.8376Z" fill="#19B6DA"/>
</svg>
