<svg width="87" height="87" viewBox="0 0 87 87" fill="none" xmlns="http://www.w3.org/2000/svg">
<circle cx="43.5" cy="43.5" r="43.5" fill="#F2F3F3"/>
<path d="M23.5418 26.1012C22.9635 26.2365 23.3326 26.2119 22.8527 26.2734C20.7979 26.7164 22.3236 27.1102 23.5418 26.1012ZM59.6807 26.9256C59.8283 26.8271 60.3451 26.3227 58.7332 25.8305C58.8316 26.335 58.401 26.2857 58.401 26.5688C59.5945 27.6516 60.0867 29.5342 61.6125 29.9279C61.9078 28.5744 60.259 27.91 59.6807 26.9256ZM22.4467 25.7074C22.6313 26.8025 23.4557 24.5508 23.468 23.751C23.148 23.9355 22.8281 24.1201 22.4959 24.2678C23.2711 24.6615 22.5943 25.0799 21.7576 25.7074C20.0596 27.8238 23.3449 24.0586 22.4467 25.7074ZM43.5 12C26.1012 12 12 26.1012 12 43.5C12 60.8865 26.1012 75 43.5 75C60.8988 75 75 60.8865 75 43.5C75 26.1012 60.8988 12 43.5 12ZM44.3367 22.5574L44.4844 22.6066C43.8937 23.3695 47.5605 25.5967 44.9273 25.7812C42.4664 26.4826 45.9609 25.1414 44.0537 25.3752C45.0627 23.9725 43.2539 23.9479 44.3367 22.5574ZM29.3988 24.5754C28.5129 23.8371 25.732 25.5844 26.7041 25.166C29.1158 24.2186 26.8641 25.2645 27.4301 26.3965C26.9133 27.467 27.2578 25.3383 25.9781 26.6057C25.0553 26.8148 22.7912 28.9066 23.0742 28.2668C23.0004 29.2635 20.3795 30.4447 20.0227 32.1059C19.1613 34.4068 19.8135 32.0197 19.6535 31.1215C18.423 29.5588 16.1836 33.767 16.848 35.4281C17.9678 33.4594 17.8816 35.2189 17.0695 36.0926C17.8939 37.6061 16.3189 39.5748 17.8816 40.6945C18.5707 40.8545 19.9488 38.3813 19.3459 40.9529C19.7643 38.7258 20.5025 41.482 21.6961 40.8668C21.7699 42.0357 22.4959 41.4943 22.6559 42.9094C24.6492 42.7617 26.4703 46.1332 24.0955 46.773C24.4523 46.6746 25.1537 47.3021 25.9658 46.8223C27.3439 47.9174 30.9738 48.0527 31.0723 50.7598C28.5744 51.9533 30.457 55.2264 28.2914 56.3953C25.8059 56.0262 27.4424 59.4592 26.3965 59.0654C26.8148 61.5387 23.8863 58.7455 25.0184 60.1113C27.0979 61.391 24.1078 61.1326 25.043 62.0678C23.9971 61.8463 25.6951 64.0119 25.9781 64.8117C27.4793 67.248 24.6861 64.2703 23.8617 63.4582C23.0742 61.8832 21.2162 58.8686 20.6994 56.3953C20.4041 52.8023 17.6232 50.3906 16.9834 46.8838C16.3436 44.9273 18.743 41.7896 17.451 40.6945C16.3312 39.8209 16.7865 36.8309 16.1221 35.2559C17.7832 28.0576 23.0619 21.9914 29.3988 18.3984C28.7467 18.8783 33.1271 17.1557 32.6227 17.574C32.4873 17.8816 35.182 16.4051 36.8063 16.1836C36.634 16.2082 32.5857 17.6602 33.7055 17.4633C31.9705 18.3123 33.5332 17.8324 34.3945 17.4018C32.6719 18.6691 31.343 18.3123 29.3865 19.432C27.4178 19.9488 27.8238 21.9914 26.4211 23.0127C27.2455 23.1604 29.3127 20.884 30.5186 20.0842C33.2871 18.743 29.1158 22.5205 31.749 20.8963C30.8631 21.7207 31.0477 23.0373 30.5062 23.4064C30.2355 23.3326 31.5768 24.0463 29.3988 24.5754ZM33.7055 18.9152C33.4225 19.2967 33.0287 20.1211 32.7949 19.6166C32.475 19.7766 32.352 20.4656 31.749 19.9119C32.1059 19.6535 32.475 19.0383 31.7736 19.4197C32.0936 19.0752 34.9482 18.1031 34.7883 17.734C35.2928 17.4141 35.2436 17.2541 34.6652 17.451C34.3699 17.3525 35.3666 16.5158 36.6955 16.4051C36.8801 16.4051 36.9539 16.5281 36.6217 16.4912C34.616 17.1064 35.4773 16.9342 36.8309 16.4912C36.3141 16.7865 35.9572 16.8727 35.8711 17.008C37.2246 16.5158 35.7973 17.3648 36.1049 17.3033C35.7234 17.5002 36.1664 17.5617 35.4281 17.8447C35.5635 17.734 34.2223 18.6445 35.0221 18.3738C34.2469 19.1121 33.9023 19.1244 33.7055 18.9152ZM34.8867 20.6748C34.9113 19.4936 36.6094 18.743 36.4002 18.6814C38.492 17.6971 35.6742 18.7184 37.323 17.8324C37.9383 17.7709 39.2426 15.8021 41.0514 15.6791C43.0447 15.0762 42.1219 15.716 43.5984 15.15L43.3031 15.3961C43.0447 15.433 43.3646 15.8883 42.4295 16.5773C42.3311 17.6479 40.6453 17.1557 41.482 18.3C40.9406 17.5248 40.1285 18.2754 41.1498 18.3492C40.0547 19.1859 37.5076 19.3336 36.2895 20.724C35.502 21.8561 34.776 21.4992 34.8867 20.6748ZM43.6354 24.6123C42.7986 26.6303 41.9865 24.317 43.4631 23.9479C43.8322 24.1447 43.9799 24.2063 43.6354 24.6123ZM40.4854 20.5764C40.2393 19.6658 40.4361 20.1457 41.9004 19.715C42.9094 20.441 41.0021 20.9209 40.4854 20.5764ZM63.3967 56.6906C62.24 54.6973 64.7994 52.8516 65.6607 51.1781C65.55 53.1346 65.3039 55.0664 63.3967 56.6906ZM67.7525 33.9146C66.4975 34.0131 65.3654 34.3084 64.2334 33.5947C61.6248 30.74 64.7133 36.8186 65.5746 34.333C68.6754 35.5143 65.5254 40.6084 63.5689 40.0793C62.4738 37.7168 61.1203 35.1205 58.7332 33.9639C60.5666 35.9941 61.4771 38.492 63.4459 40.3254C63.5812 42.8848 66.1775 39.3902 66.0176 41.3713C66.2637 44.7797 62.1662 46.8223 62.8799 50.243C64.4057 53.3561 59.9391 53.9221 60.4436 56.7152C58.6471 58.7209 56.7275 61.4279 53.5037 60.9973C53.5037 59.2992 52.6424 57.8596 52.4455 56.1123C50.6982 53.8975 54.2912 51.5227 52.0641 49.2094C49.4924 48.6311 52.5932 45.0873 49.9477 45.4195C48.3604 43.8322 46.0348 45.3703 43.7584 45.3826C40.9037 45.6533 37.9629 41.8758 39.2303 39.2057C38.2213 36.4248 42.4295 35.6127 42.5402 33.1641C44.5582 31.4783 47.4252 31.6875 50.1568 31.2938C49.96 33.2502 52.0271 33.2625 53.5898 33.9146C54.4635 31.7982 57.1828 34.2592 59.0408 32.918C59.6807 29.7926 57.232 31.6752 55.8293 30.6785C54.1313 28.193 59.4592 29.3988 58.9055 28.0945C56.8383 28.0822 58.0072 25.5475 56.543 26.9625C57.8596 27.1963 56.3092 28.2299 56.3461 27.0486C54.3527 26.4703 56.2723 29.3127 55.2633 29.5834C53.7252 28.9436 54.4512 30.3094 54.6111 30.5186C53.9467 31.9582 53.1346 28.4021 51.252 28.5006C49.3816 26.7902 50.5137 29.2758 52.1379 29.6818C51.7934 29.7803 52.3348 31.1953 51.9041 30.5924C50.5629 28.7467 48.0158 27.5162 46.5023 29.7803C46.3424 31.8967 42.0357 32.4996 42.7248 30.0264C41.7158 27.467 45.8502 29.9525 45.4688 27.91C42.8109 26.1504 46.1947 26.7164 47.093 25.0676C49.1355 25.1291 47.1791 23.3941 48.1389 22.8896C48.0404 24.7723 49.7016 24.4154 51.0182 24.0586C50.6982 22.9758 51.8057 23.0127 51.1289 22.1145C54.1805 20.8963 48.8033 22.6805 49.8861 20.0104C48.5695 19.0998 49.3324 22.016 49.8861 22.3236C49.923 23.2219 49.1602 24.3293 48.1143 22.4467C46.5885 23.4434 46.7484 21.4377 46.65 21.6469C46.4777 20.8717 47.8066 20.8348 47.8189 19.4812C47.7082 18.6199 47.7328 18.1646 48.348 18.1154C48.3973 18.2385 50.8705 18.2754 51.7441 19.2967C49.357 18.8168 51.3873 19.6904 52.4578 20.1826C51.3135 19.2844 52.9131 20.1826 51.9779 19.1613C52.3471 19.2352 50.9566 17.7586 52.384 19.0506C51.6088 18.1277 53.8975 18.3984 52.5439 17.7094C54.525 18.2631 53.3561 17.7586 52.1871 17.2541C48.9633 15.3346 57.8842 19.8504 54.242 17.8447C56.5676 18.3492 49.2709 16.0482 52.5932 17.0572C51.3258 16.5035 52.5562 16.8111 53.7006 17.168C51.6457 16.5281 48.5695 15.3346 48.6926 15.2854C49.4062 15.3346 50.1076 15.4945 50.7844 15.6914C52.8885 16.3189 50.1814 15.5438 50.7598 15.5561C57.9949 17.4141 64.3318 22.2621 68.1832 28.599C69.0814 29.5465 71.5301 35.8096 70.2504 33.0287C70.8287 35.2436 70.9148 37.6307 71.2225 39.8947C70.5826 39.1811 69.8689 36.5479 69.2537 35.0836C68.9953 35.6496 68.7 34.2838 67.7525 33.9146Z" fill="#19B6DA"/>
</svg>
