<svg width="87" height="87" viewBox="0 0 87 87" fill="none" xmlns="http://www.w3.org/2000/svg">
<circle cx="43.5" cy="43.5" r="43.5" fill="#F2F3F3"/>
<path fill-rule="evenodd" clip-rule="evenodd" d="M65.8044 25.6084H62.3033V22.1189H58.7174V15.1084H55.4068V22.1189H52.0292V25.6084H48.4186V32.6084H44.7656V70.9999H69.408V32.6084H65.8044V25.6084V25.6084ZM58.7739 28.8914H62.3033V32.3914H58.7739V28.8914ZM51.715 28.9439H55.2444V32.4439H51.715V28.9439V28.9439ZM51.8244 63.8459H48.295V60.3459H51.8244V63.8459ZM51.8244 56.8494H48.295V53.3494H51.8244V56.8494ZM51.8244 49.8529H48.295V46.3529H51.8244V49.8529ZM51.8244 42.9999H48.295V39.4999H51.8244V42.9999ZM58.8833 63.8459H55.3539V60.3459H58.8833V63.8459ZM58.8833 56.8494H55.3539V53.3494H58.8833V56.8494ZM58.8833 49.8529H55.3539V46.3529H58.8833V49.8529ZM58.8833 42.9999H55.3539V39.4999H58.8833V42.9999ZM65.9421 63.8459H62.4127V60.3459H65.9421V63.8459ZM65.9421 56.8494H62.4127V53.3494H65.9421V56.8494ZM65.9421 49.8529H62.4127V46.3529H65.9421V49.8529ZM65.9421 42.8214H62.4127V39.3214H65.9421V42.8214Z" fill="#19B6DA"/>
<path fill-rule="evenodd" clip-rule="evenodd" d="M37.5681 25.6725H33.9081V22.183H30.5587V15.1655H27.2834V22.183H23.6375V25.6725H20.1822V32.6655H16.5293V71.001H41.1716V32.6655H37.5681V25.6725ZM30.4952 28.8645H34.0246V32.3645H30.4952V28.8645V28.8645ZM23.5881 28.8645H27.1175V32.3645H23.5881V28.8645V28.8645ZM23.5881 63.9765H20.0587V60.4765H23.5881V63.9765ZM23.5881 56.9625H20.0587V53.4625H23.5881V56.9625ZM23.5881 49.8995H20.0587V46.3995H23.5881V49.8995ZM23.5881 43.001H20.0587V39.501H23.5881V43.001ZM30.6469 63.8925H27.1175V60.3925H30.6469V63.8925ZM30.6469 56.91H27.1175V53.41H30.6469V56.91ZM30.6469 49.9345H27.1175V46.4345H30.6469V49.9345ZM30.6469 42.9135H27.1175V39.4135H30.6469V42.9135ZM37.7058 63.8575H34.1764V60.3575H37.7058V63.8575ZM37.7058 56.8645H34.1764V53.3645H37.7058V56.8645ZM37.7058 49.8715H34.1764V46.3715H37.7058V49.8715ZM37.7058 42.8435H34.1764V39.3435H37.7058V42.8435Z" fill="#19B6DA"/>
</svg>
