<svg width="32" height="32" viewBox="0 0 32 32" fill="none" xmlns="http://www.w3.org/2000/svg">
<g clip-path="url(#clip0)">
<path d="M27.5286 10.0411C27.3204 9.99935 27.1642 9.97849 27.06 9.97849C26.2894 9.97849 25.6229 10.2392 25.0606 10.7605C23.7901 10.1975 22.6029 9.73868 21.499 9.38416C19.687 8.80026 17.7917 8.32063 15.8131 7.94526C15.6256 7.44477 15.3445 7.0277 14.9696 6.69404C15.4902 4.2333 16.188 2.00196 17.0627 0C19.687 0.187683 22.0978 0.948843 24.2951 2.28348C26.4925 3.61812 28.268 5.36983 29.6218 7.53861C28.8512 8.37276 28.1535 9.20691 27.5286 10.0411ZM13.0326 5.97458C12.4911 5.97458 11.9808 6.12056 11.5018 6.41251C9.81471 5.16129 8.11726 4.09775 6.40939 3.2219C8.99202 1.26165 11.8871 0.187683 15.0945 0C14.2822 1.81427 13.6262 3.8058 13.1263 5.97458H13.0326ZM2.19179 7.91398C2.89993 6.72532 3.79552 5.59922 4.87856 4.53568C6.29484 5.26556 7.76319 6.16227 9.28361 7.22581C6.59684 7.16325 4.2329 7.39264 2.19179 7.91398ZM10.0334 9.1652C10.0751 9.81166 10.299 10.3799 10.7051 10.87C11.1112 11.3601 11.6163 11.6885 12.2203 11.8553C12.0953 13.3151 12.0329 14.7019 12.0329 16.0156C12.0329 16.9332 12.0641 17.9863 12.1266 19.175C11.6684 19.321 11.2622 19.5712 10.9082 19.9257C9.78347 19.4878 8.70043 18.9873 7.65905 18.4242C7.88815 17.9655 8.00271 17.4963 8.00271 17.0166C8.00271 16.1825 7.71112 15.4734 7.12794 14.8895C6.54477 14.3056 5.83663 14.0137 5.00352 14.0137C4.0871 14.0137 3.32689 14.3682 2.72289 15.0772C1.84813 14.2848 1.06709 13.4611 0.379781 12.6061C0.56723 11.7094 0.848403 10.8231 1.2233 9.94721C3.76428 9.23819 6.70098 8.97752 10.0334 9.1652ZM2.03558 17.2669C2.09806 18.0384 2.41568 18.6901 2.98845 19.2219C3.56121 19.7537 4.2329 20.0196 5.00352 20.0196C5.23263 20.0196 5.48256 19.9778 5.75332 19.8944C7.08629 20.666 8.51298 21.3333 10.0334 21.8964V22.0215C10.0334 22.8348 10.3094 23.5282 10.8613 24.1017C11.4132 24.6751 12.0953 24.9827 12.9076 25.0244C13.4283 27.5686 14.1573 29.8938 15.0945 32C13.0118 31.8749 11.0435 31.3692 9.18988 30.4829C7.33622 29.5966 5.7377 28.4444 4.39431 27.0264C3.05093 25.6083 1.98351 23.94 1.19206 22.0215C0.400608 20.103 0.00488281 18.101 0.00488281 16.0156C0.00488281 15.9948 0.0152966 15.7133 0.0361243 15.1711C0.619299 15.9009 1.28578 16.5995 2.03558 17.2669ZM15.6569 23.4291C17.1565 23.7002 18.6665 23.8775 20.1869 23.9609C20.3327 24.378 20.5618 24.7638 20.8742 25.1183C20.3952 27.3079 20.1036 29.435 19.9994 31.4995C18.9372 31.7706 17.9583 31.9374 17.0627 32C16.0838 29.7687 15.3236 27.2454 14.7821 24.4301C15.157 24.1799 15.4486 23.8462 15.6569 23.4291ZM25.3417 24.9306C25.6125 24.5969 25.7999 24.2424 25.9041 23.8671C27.4245 23.7419 28.8929 23.5438 30.3091 23.2727C29.3094 25.233 27.9348 26.9326 26.1853 28.3715C25.9978 27.2871 25.7166 26.1401 25.3417 24.9306ZM20.2494 21.9589C18.7914 21.8755 17.3543 21.6878 15.938 21.3959C15.7089 20.3532 15.1154 19.6338 14.1573 19.2375C14.074 18.0072 14.0323 16.9332 14.0323 16.0156C14.0323 14.6393 14.0948 13.2108 14.2198 11.7302C14.2614 11.7302 14.3135 11.7094 14.376 11.6676C14.4385 11.6259 14.4801 11.6051 14.5009 11.6051C15.3132 12.3975 16.0214 13.1274 16.6254 13.7947C18.4374 15.7967 19.9786 18.0697 21.2491 20.6139C20.7909 20.9684 20.4576 21.4167 20.2494 21.9589ZM23.0299 26.0254C23.0715 26.0254 23.1861 26.015 23.3735 25.9941C23.7276 27.2662 23.9879 28.5279 24.1546 29.7791C23.5506 30.1336 22.8216 30.4881 21.9677 30.8426C22.1134 29.216 22.3634 27.5999 22.7174 25.9941C22.8841 26.015 22.9882 26.0254 23.0299 26.0254ZM22.8737 18.5494C22.8528 18.5911 22.8268 18.6536 22.7956 18.737C22.7643 18.8205 22.7383 18.883 22.7174 18.9247C21.4053 16.5474 19.8641 14.3891 18.0937 12.4497C17.448 11.7198 16.6774 10.9273 15.7818 10.0723C15.8027 10.0723 15.8183 10.0567 15.8287 10.0254L15.8443 9.97849C17.5938 10.333 19.2705 10.7709 20.8742 11.2923C21.8531 11.6051 22.9257 12.0222 24.0921 12.5435C24.0504 12.752 24.0296 12.9084 24.0296 13.0127C24.0296 13.6383 24.217 14.2118 24.5919 14.7331C23.9046 16.0469 23.3319 17.319 22.8737 18.5494ZM24.342 20.3636C24.5919 19.6338 24.7169 19.2584 24.7169 19.2375C25.1335 18.1949 25.6541 17.0792 26.279 15.8905C26.5497 15.9739 26.8101 16.0156 27.06 16.0156C27.7682 16.0156 28.4034 15.7758 28.9657 15.2962C29.9863 16.0052 30.986 16.7977 31.9649 17.6735C31.84 18.8622 31.59 20.0091 31.2151 21.1144C29.5073 21.4689 27.7057 21.7191 25.8104 21.8651C25.5396 21.1978 25.0501 20.6973 24.342 20.3636ZM30.0592 12.9814C30.0592 12.2933 29.8301 11.6676 29.3719 11.1046C29.8093 10.5415 30.2466 10.0306 30.684 9.57185C31.4338 11.2819 31.8712 13.044 31.9962 14.8583C31.3089 14.3369 30.6424 13.8677 29.9967 13.4506C30.0384 13.263 30.0592 13.1065 30.0592 12.9814Z" fill="#F2F3F3"/>
</g>
<defs>
<clipPath id="clip0">
<rect width="32" height="32" fill="white"/>
</clipPath>
</defs>
</svg>
