<svg width="59" height="47" viewBox="0 0 59 47" fill="none" xmlns="http://www.w3.org/2000/svg">
<path d="M4.56056 5.42651C4.78802 5.42651 5.01201 5.33414 5.1725 5.1725C5.33414 5.01201 5.42651 4.78917 5.42651 4.56056C5.42651 4.3331 5.33414 4.10911 5.1725 3.94862C5.01201 3.78698 4.78802 3.69461 4.56056 3.69461C4.3331 3.69461 4.10911 3.78698 3.94862 3.94862C3.78698 4.10911 3.69461 4.3331 3.69461 4.56056C3.69461 4.78802 3.78698 5.01201 3.94862 5.1725C4.10911 5.33414 4.3331 5.42651 4.56056 5.42651Z" fill="#19B6DA"/>
<path d="M7.3318 5.42651C7.55926 5.42651 7.78325 5.33414 7.94374 5.1725C8.10538 5.01201 8.19775 4.78802 8.19775 4.56056C8.19775 4.3331 8.10538 4.10911 7.94374 3.94862C7.78325 3.78698 7.55926 3.69461 7.3318 3.69461C7.10434 3.69461 6.88035 3.78698 6.71986 3.94862C6.55822 4.10911 6.46585 4.3331 6.46585 4.56056C6.46585 4.78802 6.55822 5.01201 6.71986 5.1725C6.88035 5.33414 7.10434 5.42651 7.3318 5.42651Z" fill="#19B6DA"/>
<path d="M10.103 5.42651C10.3305 5.42651 10.5545 5.33414 10.715 5.1725C10.8766 5.01201 10.969 4.78802 10.969 4.56056C10.969 4.3331 10.8766 4.10911 10.715 3.94862C10.5545 3.78698 10.3305 3.69461 10.103 3.69461C9.87443 3.69461 9.65159 3.78698 9.4911 3.94862C9.32946 4.10911 9.23709 4.3331 9.23709 4.56056C9.23709 4.78802 9.32946 5.01201 9.4911 5.1725C9.65159 5.33414 9.87558 5.42651 10.103 5.42651Z" fill="#19B6DA"/>
<path d="M13.7977 5.42651H48.8974C49.3757 5.42651 49.7634 5.0388 49.7634 4.56056C49.7634 4.08233 49.3757 3.69461 48.8974 3.69461H13.7977C13.3194 3.69461 12.9317 4.08233 12.9317 4.56056C12.9317 5.0388 13.3194 5.42651 13.7977 5.42651Z" fill="#19B6DA"/>
<path d="M52.5922 5.42651H54.4395C54.9178 5.42651 55.3055 5.0388 55.3055 4.56056C55.3055 4.08233 54.9178 3.69461 54.4395 3.69461H52.5922C52.1139 3.69461 51.7262 4.08233 51.7262 4.56056C51.7262 5.0388 52.1139 5.42651 52.5922 5.42651Z" fill="#19B6DA"/>
<path d="M54.4393 0H4.56067C2.04595 0 0 2.04595 0 4.56067V41.5078C0 44.0225 2.04595 46.0685 4.56067 46.0685H54.4393C56.9541 46.0685 59 44.0225 59 41.5078V4.56067C59 2.04595 56.9541 0 54.4393 0ZM4.56067 1.7319H54.4393C55.9991 1.7319 57.2681 3.00092 57.2681 4.56067V7.38943H1.7319V4.56067C1.7319 3.00092 3.00092 1.7319 4.56067 1.7319ZM54.4393 44.3366H4.56067C3.00092 44.3366 1.7319 43.0676 1.7319 41.5078V9.12133H57.2681V41.5078C57.2681 43.0676 55.9991 44.3366 54.4393 44.3366Z" fill="#19B6DA"/>
<path d="M39 20.5352H54V22.5352H39V20.5352Z" fill="#19B6DA"/>
<path d="M44 24.5352H54V26.5352H44V24.5352Z" fill="#19B6DA"/>
<path d="M42 28.5352H54V30.5352H42V28.5352Z" fill="#19B6DA"/>
<path d="M12 16.5352H24V18.5352H12V16.5352Z" fill="#19B6DA"/>
<path d="M34 37.5352H54V39.5352H34V37.5352Z" fill="#19B6DA"/>
<path d="M12 12.5352H54V14.5352H12V12.5352Z" fill="#19B6DA"/>
<path d="M8.711 37.6066L14.342 27.9676L21.776 34.2258C22.0007 34.4186 22.2677 34.5601 22.5569 34.6396C22.8462 34.7192 23.1504 34.7348 23.4467 34.6853C23.7431 34.6359 24.0242 34.5225 24.2688 34.3538C24.5135 34.1851 24.7156 33.9653 24.86 33.7109L31.83 23.6794L30.169 22.6052L23.169 32.6801L23.099 32.7794L15.664 26.5212C15.4393 26.3294 15.1729 26.1888 14.8843 26.1097C14.5958 26.0306 14.2925 26.015 13.9968 26.064C13.7012 26.1131 13.4207 26.2256 13.1762 26.3931C12.9316 26.5607 12.7293 26.7791 12.584 27.0322L8 34.8902V12.5352H6V37.6066C6.00053 38.1179 6.21141 38.6082 6.58637 38.9697C6.96133 39.3313 7.46973 39.5346 8 39.5352H34V37.6066H8.711Z" fill="#19B6DA"/>
</svg>
