<svg width="32" height="32" viewBox="0 0 32 32" fill="none" xmlns="http://www.w3.org/2000/svg">
<path d="M8.65624 3C8.13324 3 7.61624 3.19 7.18624 3.53L7.12624 3.563L7.09424 3.593L3.96924 6.813L3.99924 6.843C3.03624 7.735 2.73624 9.067 3.15524 10.219C3.15724 10.224 3.15324 10.243 3.15524 10.249C4.00224 12.677 6.17224 17.359 10.4052 21.593C14.6552 25.843 19.4022 27.923 21.7492 28.843H21.7792C22.3679 29.0371 22.9967 29.0757 23.6047 28.9552C24.2127 28.8347 24.7792 28.559 25.2492 28.155L25.2792 28.125L25.3112 28.093L28.4072 25C29.2372 24.17 29.2372 22.736 28.4072 21.906L24.3452 17.844L24.3132 17.781C23.4832 16.951 22.0182 16.951 21.1882 17.781L21.1582 17.813L19.1882 19.783C17.6872 19.0618 16.3065 18.1129 15.0952 16.97C13.4592 15.407 12.6212 13.61 12.3152 12.906L14.3132 10.906C15.1552 10.064 15.1682 8.67 14.2832 7.844L14.3132 7.812L14.2202 7.719L10.2202 3.593L10.1872 3.563L10.1252 3.53C9.70913 3.19244 9.19103 3.00564 8.65524 3H8.65624ZM8.65624 5C8.73024 5 8.80324 5.036 8.87624 5.094L12.8762 9.187L12.9382 9.25L12.9682 9.28C12.9612 9.275 13.0282 9.377 12.9062 9.5L10.4062 12L9.93624 12.438L10.1562 13.062C10.1562 13.062 11.3062 16.135 13.7192 18.438L13.9362 18.625C16.2602 20.747 19.0002 21.905 19.0002 21.905L19.6252 22.187L20.0952 21.719L22.5952 19.219C22.7652 19.049 22.7352 19.049 22.9052 19.219L27.0002 23.312C27.1702 23.482 27.1702 23.422 27.0002 23.592L23.9372 26.655C23.4772 27.051 22.9902 27.131 22.4072 26.937C20.1392 26.047 15.7372 24.11 11.8122 20.187C7.85724 16.23 5.79024 11.74 5.03224 9.563C4.87924 9.156 4.98924 8.553 5.34424 8.25L5.37424 8.22L5.40624 8.187L8.43824 5.094C8.49775 5.03886 8.57431 5.00569 8.65524 5H8.65624Z" fill="#2A3D42" fill-opacity="0.7"/>
</svg>
