<svg width="87" height="87" viewBox="0 0 87 87" fill="none" xmlns="http://www.w3.org/2000/svg">
<circle cx="43.5" cy="43.5" r="43.5" fill="#19B6DA"/>
<path d="M59.2499 67.125L51.3749 59.25L59.2499 51.375V56.625H69.7499V61.875H59.2499V67.125ZM46.1249 59.25C46.1249 61.1138 46.5186 62.8988 47.2274 64.5H17.2499V56.625C17.2499 50.8237 26.6474 46.125 38.2499 46.125C40.8749 46.125 43.3949 46.3612 45.7311 46.8075C47.9099 47.2275 49.9049 47.805 51.6636 48.54C48.3036 50.9288 46.1249 54.84 46.1249 59.25ZM22.4999 56.625V59.25H40.8749C40.8749 56.52 41.4786 53.9212 42.5549 51.585L38.2499 51.375C29.5611 51.375 22.4999 53.7375 22.4999 56.625ZM38.2499 22.5C41.0347 22.5 43.7054 23.6062 45.6745 25.5754C47.6436 27.5445 48.7499 30.2152 48.7499 33C48.7499 35.7848 47.6436 38.4555 45.6745 40.4246C43.7054 42.3938 41.0347 43.5 38.2499 43.5C35.4651 43.5 32.7944 42.3938 30.8253 40.4246C28.8561 38.4555 27.7499 35.7848 27.7499 33C27.7499 30.2152 28.8561 27.5445 30.8253 25.5754C32.7944 23.6062 35.4651 22.5 38.2499 22.5ZM38.2499 27.75C36.8575 27.75 35.5221 28.3031 34.5376 29.2877C33.553 30.2723 32.9999 31.6076 32.9999 33C32.9999 34.3924 33.553 35.7277 34.5376 36.7123C35.5221 37.6969 36.8575 38.25 38.2499 38.25C39.6423 38.25 40.9776 37.6969 41.9622 36.7123C42.9468 35.7277 43.4999 34.3924 43.4999 33C43.4999 31.6076 42.9468 30.2723 41.9622 29.2877C40.9776 28.3031 39.6423 27.75 38.2499 27.75Z" fill="#F2F3F3"/>
</svg>
